<mxfile host="Electron" modified="2024-01-09T13:59:37.914Z" agent="Mozilla/5.0 (Windows NT 10.0; Win64; x64) AppleWebKit/537.36 (KHTML, like Gecko) draw.io/22.1.16 Chrome/120.0.6099.109 Electron/28.1.0 Safari/537.36" etag="GtjuRvZp4CT-rbMJhBO-" version="22.1.16" type="device">
  <diagram name="Page-1" id="KuR4UtBWpp4qApr5mMua">
    <mxGraphModel dx="1421" dy="821" grid="1" gridSize="10" guides="1" tooltips="1" connect="1" arrows="1" fold="1" page="1" pageScale="1" pageWidth="1169" pageHeight="827" math="0" shadow="0">
      <root>
        <mxCell id="0" />
        <mxCell id="1" parent="0" />
        <mxCell id="y3n4LGOtxSDY_lAwH041-50" value="" style="rounded=0;whiteSpace=wrap;html=1;fillColor=#d5e8d4;strokeColor=#82b366;" vertex="1" parent="1">
          <mxGeometry x="59" y="70" width="921" height="530" as="geometry" />
        </mxCell>
        <mxCell id="y3n4LGOtxSDY_lAwH041-54" value="" style="rounded=0;whiteSpace=wrap;html=1;fillColor=#f5f5f5;fontColor=#333333;strokeColor=#666666;" vertex="1" parent="1">
          <mxGeometry x="80" y="120" width="400" height="460" as="geometry" />
        </mxCell>
        <mxCell id="y3n4LGOtxSDY_lAwH041-53" value="" style="rounded=0;whiteSpace=wrap;html=1;fillColor=#f5f5f5;fontColor=#333333;strokeColor=#666666;" vertex="1" parent="1">
          <mxGeometry x="480" y="120" width="480" height="460" as="geometry" />
        </mxCell>
        <mxCell id="y3n4LGOtxSDY_lAwH041-13" style="edgeStyle=orthogonalEdgeStyle;rounded=0;orthogonalLoop=1;jettySize=auto;html=1;entryX=0;entryY=0.5;entryDx=0;entryDy=0;" edge="1" parent="1" source="y3n4LGOtxSDY_lAwH041-1" target="y3n4LGOtxSDY_lAwH041-9">
          <mxGeometry relative="1" as="geometry" />
        </mxCell>
        <mxCell id="y3n4LGOtxSDY_lAwH041-14" style="edgeStyle=orthogonalEdgeStyle;rounded=0;orthogonalLoop=1;jettySize=auto;html=1;entryX=0;entryY=0.5;entryDx=0;entryDy=0;" edge="1" parent="1" source="y3n4LGOtxSDY_lAwH041-1" target="y3n4LGOtxSDY_lAwH041-4">
          <mxGeometry relative="1" as="geometry" />
        </mxCell>
        <mxCell id="y3n4LGOtxSDY_lAwH041-1" value="Register&lt;br&gt;File" style="whiteSpace=wrap;html=1;aspect=fixed;fillColor=#dae8fc;strokeColor=#6c8ebf;" vertex="1" parent="1">
          <mxGeometry x="600" y="320" width="80" height="80" as="geometry" />
        </mxCell>
        <mxCell id="y3n4LGOtxSDY_lAwH041-4" value="" style="rounded=0;whiteSpace=wrap;html=1;fillColor=#fff2cc;strokeColor=#d6b656;" vertex="1" parent="1">
          <mxGeometry x="760" y="239" width="80" height="40" as="geometry" />
        </mxCell>
        <mxCell id="y3n4LGOtxSDY_lAwH041-5" value="9 X&lt;br&gt;Uarts" style="rounded=0;whiteSpace=wrap;html=1;fillColor=#fff2cc;strokeColor=#d6b656;" vertex="1" parent="1">
          <mxGeometry x="770" y="249" width="80" height="40" as="geometry" />
        </mxCell>
        <mxCell id="y3n4LGOtxSDY_lAwH041-9" value="" style="rounded=0;whiteSpace=wrap;html=1;fillColor=#fff2cc;strokeColor=#d6b656;" vertex="1" parent="1">
          <mxGeometry x="760" y="320" width="80" height="40" as="geometry" />
        </mxCell>
        <mxCell id="y3n4LGOtxSDY_lAwH041-10" value="3 X&lt;br&gt;SPI" style="rounded=0;whiteSpace=wrap;html=1;fillColor=#fff2cc;strokeColor=#d6b656;" vertex="1" parent="1">
          <mxGeometry x="770" y="330" width="80" height="40" as="geometry" />
        </mxCell>
        <mxCell id="y3n4LGOtxSDY_lAwH041-12" style="edgeStyle=orthogonalEdgeStyle;rounded=0;orthogonalLoop=1;jettySize=auto;html=1;entryX=0.5;entryY=1;entryDx=0;entryDy=0;exitX=0.113;exitY=0.504;exitDx=0;exitDy=0;exitPerimeter=0;" edge="1" parent="1" source="y3n4LGOtxSDY_lAwH041-11" target="y3n4LGOtxSDY_lAwH041-1">
          <mxGeometry relative="1" as="geometry" />
        </mxCell>
        <mxCell id="y3n4LGOtxSDY_lAwH041-11" value="Logic &amp;amp;&lt;br&gt;State Machines" style="ellipse;shape=cloud;whiteSpace=wrap;html=1;fillColor=#e1d5e7;strokeColor=#9673a6;" vertex="1" parent="1">
          <mxGeometry x="690" y="414" width="170" height="106" as="geometry" />
        </mxCell>
        <mxCell id="y3n4LGOtxSDY_lAwH041-15" value="" style="shape=flexArrow;endArrow=classic;startArrow=classic;html=1;rounded=0;" edge="1" parent="1">
          <mxGeometry width="100" height="100" relative="1" as="geometry">
            <mxPoint x="850" y="270" as="sourcePoint" />
            <mxPoint x="960" y="270" as="targetPoint" />
          </mxGeometry>
        </mxCell>
        <mxCell id="y3n4LGOtxSDY_lAwH041-20" value="UARTs" style="edgeLabel;html=1;align=center;verticalAlign=middle;resizable=0;points=[];" vertex="1" connectable="0" parent="y3n4LGOtxSDY_lAwH041-15">
          <mxGeometry x="0.0263" relative="1" as="geometry">
            <mxPoint as="offset" />
          </mxGeometry>
        </mxCell>
        <mxCell id="y3n4LGOtxSDY_lAwH041-16" value="" style="shape=flexArrow;endArrow=classic;startArrow=classic;html=1;rounded=0;" edge="1" parent="1">
          <mxGeometry width="100" height="100" relative="1" as="geometry">
            <mxPoint x="850" y="349.58" as="sourcePoint" />
            <mxPoint x="960" y="349.58" as="targetPoint" />
          </mxGeometry>
        </mxCell>
        <mxCell id="y3n4LGOtxSDY_lAwH041-19" value="SPIs" style="edgeLabel;html=1;align=center;verticalAlign=middle;resizable=0;points=[];" vertex="1" connectable="0" parent="y3n4LGOtxSDY_lAwH041-16">
          <mxGeometry x="-0.0949" relative="1" as="geometry">
            <mxPoint as="offset" />
          </mxGeometry>
        </mxCell>
        <mxCell id="y3n4LGOtxSDY_lAwH041-17" value="" style="shape=flexArrow;endArrow=classic;startArrow=classic;html=1;rounded=0;" edge="1" parent="1">
          <mxGeometry width="100" height="100" relative="1" as="geometry">
            <mxPoint x="850" y="466.86" as="sourcePoint" />
            <mxPoint x="960" y="466.86" as="targetPoint" />
          </mxGeometry>
        </mxCell>
        <mxCell id="y3n4LGOtxSDY_lAwH041-18" value="Discrete IOs" style="edgeLabel;html=1;align=center;verticalAlign=middle;resizable=0;points=[];" vertex="1" connectable="0" parent="y3n4LGOtxSDY_lAwH041-17">
          <mxGeometry x="-0.1253" y="-5" relative="1" as="geometry">
            <mxPoint as="offset" />
          </mxGeometry>
        </mxCell>
        <mxCell id="y3n4LGOtxSDY_lAwH041-23" value="" style="endArrow=classic;startArrow=classic;html=1;rounded=0;exitX=1;exitY=0.75;exitDx=0;exitDy=0;" edge="1" parent="1" source="y3n4LGOtxSDY_lAwH041-1">
          <mxGeometry width="50" height="50" relative="1" as="geometry">
            <mxPoint x="760" y="450" as="sourcePoint" />
            <mxPoint x="890" y="460" as="targetPoint" />
            <Array as="points">
              <mxPoint x="850" y="400" />
            </Array>
          </mxGeometry>
        </mxCell>
        <mxCell id="y3n4LGOtxSDY_lAwH041-27" style="edgeStyle=orthogonalEdgeStyle;rounded=0;orthogonalLoop=1;jettySize=auto;html=1;exitX=1;exitY=0.25;exitDx=0;exitDy=0;entryX=0;entryY=0.25;entryDx=0;entryDy=0;" edge="1" parent="1" source="y3n4LGOtxSDY_lAwH041-26" target="y3n4LGOtxSDY_lAwH041-4">
          <mxGeometry relative="1" as="geometry" />
        </mxCell>
        <mxCell id="y3n4LGOtxSDY_lAwH041-28" style="edgeStyle=orthogonalEdgeStyle;rounded=0;orthogonalLoop=1;jettySize=auto;html=1;exitX=1;exitY=0.5;exitDx=0;exitDy=0;entryX=0;entryY=0.25;entryDx=0;entryDy=0;" edge="1" parent="1" source="y3n4LGOtxSDY_lAwH041-26" target="y3n4LGOtxSDY_lAwH041-9">
          <mxGeometry relative="1" as="geometry">
            <Array as="points">
              <mxPoint x="700" y="299" />
              <mxPoint x="700" y="330" />
            </Array>
          </mxGeometry>
        </mxCell>
        <mxCell id="y3n4LGOtxSDY_lAwH041-26" value="Interconnect" style="rounded=0;whiteSpace=wrap;html=1;fillColor=#fff2cc;strokeColor=#d6b656;" vertex="1" parent="1">
          <mxGeometry x="520" y="239" width="40" height="120" as="geometry" />
        </mxCell>
        <mxCell id="y3n4LGOtxSDY_lAwH041-30" style="edgeStyle=orthogonalEdgeStyle;rounded=0;orthogonalLoop=1;jettySize=auto;html=1;exitX=1;exitY=0.75;exitDx=0;exitDy=0;entryX=-0.013;entryY=0.114;entryDx=0;entryDy=0;entryPerimeter=0;" edge="1" parent="1" source="y3n4LGOtxSDY_lAwH041-26" target="y3n4LGOtxSDY_lAwH041-1">
          <mxGeometry relative="1" as="geometry" />
        </mxCell>
        <mxCell id="y3n4LGOtxSDY_lAwH041-32" value="Linux + infrastructure" style="ellipse;whiteSpace=wrap;html=1;fillColor=#fff2cc;strokeColor=#d6b656;" vertex="1" parent="1">
          <mxGeometry x="160" y="480" width="220" height="80" as="geometry" />
        </mxCell>
        <mxCell id="y3n4LGOtxSDY_lAwH041-33" value="data collection" style="ellipse;whiteSpace=wrap;html=1;fillColor=#dae8fc;strokeColor=#6c8ebf;" vertex="1" parent="1">
          <mxGeometry x="160" y="400" width="220" height="80" as="geometry" />
        </mxCell>
        <mxCell id="y3n4LGOtxSDY_lAwH041-34" value="algorithms, &lt;br&gt;Logic &amp;amp; state machines" style="ellipse;whiteSpace=wrap;html=1;fillColor=#e1d5e7;strokeColor=#9673a6;" vertex="1" parent="1">
          <mxGeometry x="160" y="240" width="220" height="80" as="geometry" />
        </mxCell>
        <mxCell id="y3n4LGOtxSDY_lAwH041-35" value="Periodic 1 KHz Log&lt;br&gt;periodic 100 Hz Messages" style="ellipse;whiteSpace=wrap;html=1;fillColor=#dae8fc;strokeColor=#6c8ebf;" vertex="1" parent="1">
          <mxGeometry x="160" y="320" width="220" height="80" as="geometry" />
        </mxCell>
        <mxCell id="y3n4LGOtxSDY_lAwH041-36" value="Host to Card&lt;br&gt;messages, control and status&lt;br&gt;+debug" style="ellipse;whiteSpace=wrap;html=1;fillColor=#e1d5e7;strokeColor=#9673a6;" vertex="1" parent="1">
          <mxGeometry x="160" y="159" width="220" height="80" as="geometry" />
        </mxCell>
        <mxCell id="y3n4LGOtxSDY_lAwH041-37" value="Infrastructure" style="rounded=1;whiteSpace=wrap;html=1;fillColor=#fff2cc;strokeColor=#d6b656;" vertex="1" parent="1">
          <mxGeometry x="80" y="650" width="160" height="30" as="geometry" />
        </mxCell>
        <mxCell id="y3n4LGOtxSDY_lAwH041-38" value="Application skeleton" style="rounded=1;whiteSpace=wrap;html=1;fillColor=#dae8fc;strokeColor=#6c8ebf;" vertex="1" parent="1">
          <mxGeometry x="80" y="680" width="160" height="30" as="geometry" />
        </mxCell>
        <mxCell id="y3n4LGOtxSDY_lAwH041-39" value="Algorithms implementation" style="rounded=1;whiteSpace=wrap;html=1;fillColor=#e1d5e7;strokeColor=#9673a6;" vertex="1" parent="1">
          <mxGeometry x="80" y="710" width="160" height="30" as="geometry" />
        </mxCell>
        <mxCell id="y3n4LGOtxSDY_lAwH041-52" value="&lt;font style=&quot;font-size: 24px;&quot;&gt;Zynq 7020&lt;/font&gt;" style="text;html=1;align=center;verticalAlign=middle;resizable=0;points=[];autosize=1;strokeColor=none;fillColor=none;" vertex="1" parent="1">
          <mxGeometry x="70" y="70" width="140" height="40" as="geometry" />
        </mxCell>
        <mxCell id="y3n4LGOtxSDY_lAwH041-55" value="&lt;font style=&quot;font-size: 24px;&quot;&gt;PL: block diagram&lt;/font&gt;" style="text;html=1;strokeColor=none;fillColor=none;align=center;verticalAlign=middle;whiteSpace=wrap;rounded=0;" vertex="1" parent="1">
          <mxGeometry x="480" y="120" width="200" height="30" as="geometry" />
        </mxCell>
        <mxCell id="y3n4LGOtxSDY_lAwH041-56" value="&lt;font style=&quot;font-size: 24px;&quot;&gt;PS: SW components&lt;/font&gt;" style="text;html=1;strokeColor=none;fillColor=none;align=center;verticalAlign=middle;whiteSpace=wrap;rounded=0;" vertex="1" parent="1">
          <mxGeometry x="80" y="120" width="230" height="30" as="geometry" />
        </mxCell>
        <mxCell id="y3n4LGOtxSDY_lAwH041-57" value="" style="endArrow=classic;startArrow=classic;html=1;rounded=0;entryX=0.006;entryY=0.197;entryDx=0;entryDy=0;entryPerimeter=0;exitX=0.001;exitY=0.311;exitDx=0;exitDy=0;exitPerimeter=0;" edge="1" parent="1" source="y3n4LGOtxSDY_lAwH041-53" target="y3n4LGOtxSDY_lAwH041-26">
          <mxGeometry width="50" height="50" relative="1" as="geometry">
            <mxPoint x="670" y="360" as="sourcePoint" />
            <mxPoint x="720" y="310" as="targetPoint" />
            <Array as="points" />
          </mxGeometry>
        </mxCell>
      </root>
    </mxGraphModel>
  </diagram>
</mxfile>
